# xmcd CD database file
#
# Track frame offsets:
#	150
#	16195
#	37125
#	54835
#	70095
#	92590
#	113157
#	139702
#	164110
#	180820
#	192965
#	204787
#	219227
#	238360
#	265647
#
# Disc length: 3797 seconds
#
# Revision: 0
# Processed by: cddbd v1.5.2PL0 Copyright (c) Steve Scherf et al.
# Submitted via: CDex 1.95
#
DISCID=c60ed30f
DTITLE=Alice Babs - Serenading Duke Ellington
DYEAR=2002
DGENRE=Jazz
TTITLE0=Alice Babs - Lady in Blue
TTITLE1=Alice Babs - Me and You
TTITLE2=Alice Babs - Don't get Around Much Anymore
TTITLE3=Alice Babs - Freedom 1
TTITLE4=Alice Babs - There's Something About Me
TTITLE5=Alice Babs - Somebody Cares
TTITLE6=Alice Babs - Warm Valley
TTITLE7=Alice Babs - I Don't Mind
TTITLE8=Alice Babs - Jump for Joy
TTITLE9=Alice Babs - I Like the Sunrise
TTITLE10=Alice Babs - Freedom 1 and 3
TTITLE11=Alice Babs - Somebody Cares
TTITLE12=Alice Babs - Thank You for Everything
TTITLE13=Alice Babs - Something about Believing
TTITLE14=Alice Babs - Solitude
EXTD=YEAR: 2002
EXTT0=
EXTT1=
EXTT2=
EXTT3=
EXTT4=
EXTT5=
EXTT6=
EXTT7=
EXTT8=
EXTT9=
EXTT10=
EXTT11=
EXTT12=
EXTT13=
EXTT14=
PLAYORDER=
